<svg xmlns="http://www.w3.org/2000/svg" width="64" height="64" id="connect" fill="#FF6341"><path fill-rule="evenodd" d="M33.434 991.193c-1.083 0-1.971.888-1.971 1.97 0 1.084.888 1.972 1.97 1.972 1.083 0 1.971-.888 1.971-1.971 0-1.083-.888-1.97-1.97-1.97zm12.662.153c-3.996 0-7.244 3.25-7.244 7.246 0 1.247.315 2.421.873 3.447l-11.028 8.805c-2.714-3.178-6.743-5.2-11.246-5.2-8.164 0-14.793 6.629-14.793 14.793 0 8.165 6.629 14.795 14.793 14.795 4.498 0 8.522-2.019 11.236-5.191l11.032 8.808a7.203 7.203 0 0 0-.867 3.436c0 3.996 3.248 7.246 7.244 7.246 3.995 0 7.246-3.25 7.246-7.246 0-3.996-3.25-7.244-7.246-7.244a7.23 7.23 0 0 0-5.832 2.963l-10.957-8.748a14.695 14.695 0 0 0 2.914-8.309h14.656c.264 3.757 3.396 6.736 7.219 6.736 3.995 0 7.246-3.25 7.246-7.246 0-3.995-3.25-7.244-7.246-7.244-3.83 0-6.965 2.987-7.219 6.754H32.221a14.695 14.695 0 0 0-2.907-8.316l10.957-8.748a7.231 7.231 0 0 0 5.825 2.953c3.995 0 7.246-3.249 7.246-7.244 0-3.996-3.25-7.246-7.246-7.246zm-40.782.767a.5.5 0 0 0-.492.508v5.062a.5.5 0 1 0 1 0v-5.062a.5.5 0 0 0-.508-.508zm2 0a.5.5 0 0 0-.492.508v1.744a.5.5 0 1 0 1 0v-1.744a.5.5 0 0 0-.508-.508zm26.12.08c.542 0 .97.429.97.97 0 .543-.428.972-.97.972a.963.963 0 0 1-.971-.971c0-.542.428-.97.97-.97zm12.662.153a6.24 6.24 0 0 1 6.246 6.246c0 1.903-.85 3.601-2.19 4.746v-3.057c0-1.146-.939-2.084-2.086-2.084h-.45a.5.5 0 0 0-.473.336l-1.045 3.041-1.047-3.04a.5.5 0 0 0-.473-.337h-.451a2.087 2.087 0 0 0-2.086 2.084v3.059a6.223 6.223 0 0 1-2.19-4.748 6.237 6.237 0 0 1 6.245-6.246zm0 .513a2.789 2.789 0 0 0-2.782 2.781c0 1.53 1.251 2.782 2.782 2.782a2.79 2.79 0 0 0 2.783-2.782 2.79 2.79 0 0 0-2.783-2.78zm12.615.496a.5.5 0 0 0-.492.508v5.063a.5.5 0 1 0 1 0v-5.063a.5.5 0 0 0-.508-.508zm-12.615.504c.99 0 1.783.792 1.783 1.781 0 .99-.793 1.782-1.783 1.782-.99 0-1.782-.792-1.782-1.782s.792-1.78 1.782-1.78zm-38.782 1.496a.5.5 0 0 0-.492.508v5.063a.5.5 0 1 0 1 0v-5.063a.5.5 0 0 0-.508-.508zm-2 3.319a.5.5 0 0 0-.492.506v1.746a.5.5 0 1 0 1 0v-1.746a.5.5 0 0 0-.508-.506zm8.795.033a.5.5 0 1 0 .051 1h3.17a.5.5 0 1 0 0-1h-3.17a.5.5 0 0 0-.05 0zm4.8 0a.5.5 0 1 0 .05 1h9.047a.5.5 0 1 0 0-1h-9.047a.5.5 0 0 0-.05 0zm25.216.49a.5.5 0 0 0 .002 0h.094l1.402 4.08a.5.5 0 0 0 .947 0l1.403-4.08h.093c.61 0 1.086.474 1.086 1.084v3.754a6.227 6.227 0 0 1-6.11 0v-3.754c0-.61.475-1.086 1.083-1.084zm14.586.719a.5.5 0 0 0-.492.506v1.746a.5.5 0 1 0 1 0v-1.746a.5.5 0 0 0-.508-.506zm-40.643.79a.5.5 0 1 0 .051 1h6.156a.5.5 0 1 0 0-1H18.12a.5.5 0 0 0-.05 0zm7.756 0a.5.5 0 1 0 .051 1h2.564a.5.5 0 1 0 0-1h-2.564a.5.5 0 0 0-.05 0zm-8.373 5.938c7.624 0 13.795 6.17 13.795 13.793 0 4.622-2.275 8.699-5.76 11.201v-7.619c0-2.129-1.73-3.859-3.859-3.859h-.957a.5.5 0 0 0-.473.338l-.726 2.111-.383-1.215a2.31 2.31 0 0 0 .629-.619 2.91 2.91 0 0 0 .537-1.582 5.332 5.332 0 0 0 2.533-4.53 5.343 5.343 0 0 0-5.336-5.333 5.341 5.341 0 0 0-5.334 5.334 5.332 5.332 0 0 0 2.533 4.531c.024.63.225 1.202.543 1.64.17.235.38.434.618.577l-.38 1.2-.726-2.114a.5.5 0 0 0-.473-.338h-.957c-2.13-.01-3.859 1.73-3.859 3.86v7.617c-3.483-2.503-5.758-6.579-5.758-11.2 0-7.624 6.17-13.793 13.793-13.793zm39.654 1.016c-1.082 0-1.97.888-1.97 1.97a1.98 1.98 0 0 0 1.97 1.973 1.98 1.98 0 0 0 1.971-1.972c0-1.083-.888-1.971-1.97-1.971zm0 1c.543 0 .971.428.971.97a.965.965 0 0 1-.97.973.965.965 0 0 1-.971-.972c0-.543.428-.971.97-.971zm-19.67.174a.5.5 0 0 0-.347.857l1.812 1.813a.5.5 0 1 0 .707-.707l-1.812-1.813a.5.5 0 0 0-.36-.15zm6.051 0a.5.5 0 0 0-.343.15l-1.813 1.813a.5.5 0 1 0 .707.707l1.813-1.813a.5.5 0 0 0-.364-.857zm-26.035 1.496c2.4 0 4.336 1.934 4.336 4.334a4.33 4.33 0 0 1-4.336 4.336 4.328 4.328 0 0 1-4.334-4.336c0-2.4 1.934-4.334 4.334-4.334zm21.793 2.746a.5.5 0 0 0-.344.15l-1.812 1.813a.5.5 0 1 0 .707.707l1.812-1.813a.5.5 0 0 0-.363-.857zm2.436 0a.5.5 0 0 0-.35.857l1.813 1.813a.5.5 0 1 0 .707-.707l-1.813-1.813a.5.5 0 0 0-.357-.15zm12.416 1.117a6.237 6.237 0 0 1 6.246 6.244c0 1.904-.851 3.602-2.19 4.746v-3.054c0-1.147-.939-2.086-2.086-2.086h-.45a.5.5 0 0 0-.473.338l-1.045 3.04-1.047-3.04a.5.5 0 0 0-.473-.338h-.451c-1.149 0-2.086.94-2.086 2.086v3.056a6.225 6.225 0 0 1-2.19-4.748 6.236 6.236 0 0 1 6.245-6.244zm0 .512a2.789 2.789 0 0 0-2.782 2.781c0 1.53 1.251 2.781 2.782 2.781a2.79 2.79 0 0 0 2.783-2.78 2.79 2.79 0 0 0-2.783-2.782zm0 1c.99 0 1.783.791 1.783 1.781 0 .99-.793 1.781-1.783 1.781-.99 0-1.782-.791-1.782-1.78 0-.99.792-1.782 1.782-1.782zm-38.352 4.008c.537.182 1.11.287 1.707.287.591 0 1.158-.103 1.69-.281a2.066 2.066 0 0 1-.24.48c-.212.299-.472.43-.561.432h-1.783c-.13 0-.356-.109-.555-.383a1.869 1.869 0 0 1-.258-.535zm36.381 1.33a.5.5 0 0 0 .002 0h.094l1.402 4.08a.5.5 0 0 0 .947 0l1.403-4.08h.093c.61 0 1.086.476 1.086 1.086v3.754a6.224 6.224 0 0 1-6.11 0v-3.754c0-.61.475-1.088 1.083-1.086zm-38.852.117a.5.5 0 0 0 .002 0h.6l3.104 9.025a.5.5 0 0 0 .945 0l3.103-9.025h.6a2.842 2.842 0 0 1 2.86 2.86v8.27a13.718 13.718 0 0 1-14.07 0v-8.27a2.839 2.839 0 0 1 2.856-2.86zm3.516.47h1.324l.81 2.571-1.472 4.283-1.472-4.281.81-2.572zm23.17 5.3c-1.083 0-1.97.888-1.97 1.97 0 1.083.887 1.97 1.97 1.97s1.97-.887 1.97-1.97c0-1.082-.887-1.97-1.97-1.97zm0 1c.542 0 .97.428.97.97s-.428.97-.97.97a.963.963 0 0 1-.97-.97c0-.542.428-.97.97-.97zm13.986 2.91a.5.5 0 0 0-.347.86l1.812 1.81a.5.5 0 1 0 .707-.707l-1.812-1.811a.5.5 0 0 0-.36-.152zm6.051 0a.5.5 0 0 0-.344.152l-1.812 1.81a.5.5 0 1 0 .707.708l1.812-1.81a.5.5 0 0 0-.363-.86zm-4.242 4.242a.5.5 0 0 0-.344.152l-1.812 1.813a.5.5 0 1 0 .707.707l1.812-1.813a.5.5 0 0 0-.363-.86zm2.434 0a.5.5 0 0 0-.348.86l1.812 1.812a.5.5 0 1 0 .707-.707l-1.812-1.813a.5.5 0 0 0-.36-.152zm-54.993.01a.5.5 0 0 0-.347.86l1.812 1.81a.5.5 0 1 0 .707-.707l-1.812-1.81a.5.5 0 0 0-.36-.153zm6.051 0a.5.5 0 0 0-.344.152l-1.812 1.81a.5.5 0 1 0 .707.708l1.812-1.81a.5.5 0 0 0-.363-.86zm19.215.016a.5.5 0 0 0-.492.508v5.062a.5.5 0 1 0 1 0v-5.062a.5.5 0 0 0-.508-.508zm17.635.935a6.237 6.237 0 0 1 6.246 6.245c0 1.903-.851 3.601-2.19 4.746v-3.057c0-1.147-.939-2.084-2.086-2.084h-.45a.5.5 0 0 0-.473.338l-1.045 3.039-1.047-3.04a.5.5 0 0 0-.473-.337h-.451a2.09 2.09 0 0 0-2.086 2.084v3.059a6.224 6.224 0 0 1-2.19-4.748 6.236 6.236 0 0 1 6.245-6.245zm0 .512a2.789 2.789 0 0 0-2.782 2.781c0 1.53 1.251 2.782 2.782 2.782a2.79 2.79 0 0 0 2.783-2.782 2.79 2.79 0 0 0-2.783-2.78zm0 1c.99 0 1.783.792 1.783 1.781 0 .99-.793 1.782-1.783 1.782-.99 0-1.782-.792-1.782-1.782s.792-1.78 1.782-1.78zm-28.36 1.518a1.98 1.98 0 0 0-1.972 1.97c0 1.083.89 1.971 1.972 1.971 1.083 0 1.971-.888 1.971-1.97 0-1.083-.888-1.971-1.97-1.971zm-12.732.261a.5.5 0 0 0-.344.153l-1.812 1.812a.5.5 0 1 0 .707.707l1.812-1.812a.5.5 0 0 0-.363-.86zm2.434 0a.5.5 0 0 0-.348.86l1.812 1.812a.5.5 0 1 0 .707-.707l-1.812-1.812a.5.5 0 0 0-.36-.155Zm10.298.739c.543 0 .971.428.971.97 0 .543-.428.971-.97.971a.965.965 0 0 1-.973-.97c0-.543.43-.971.972-.971zm10.725 1.595a.5.5 0 0 0-.492.506v1.746a.5.5 0 1 0 1 0v-1.746a.5.5 0 0 0-.508-.506zm15.664 1.225a.5.5 0 0 0 .002 0h.094l1.402 4.08a.5.5 0 0 0 .947 0l1.403-4.08h.093c.61 0 1.086.474 1.086 1.084v3.756a6.225 6.225 0 0 1-6.11 0v-3.756c0-.61.475-1.086 1.083-1.084zm-36.39 3.512a.5.5 0 1 0 .048 1h3.17a.5.5 0 1 0 0-1h-3.17a.5.5 0 0 0-.049 0zm4.798 0a.5.5 0 0 0 .049 1h9.047a.5.5 0 1 0 0-1h-9.047a.5.5 0 0 0-.049 0zm-.84 2a.5.5 0 1 0 .05 1H17.9a.5.5 0 1 0 0-1h-6.158a.5.5 0 0 0-.049 0zm7.756 0a.5.5 0 1 0 .051 1h2.562a.5.5 0 1 0 0-1H19.5a.5.5 0 0 0-.05 0z" color="#000" font-family="sans-serif" font-weight="400" overflow="visible" transform="translate(0 -988.362)" style="line-height:normal;text-indent:0;text-align:start;text-decoration-line:none;text-decoration-style:solid;text-decoration-color:#000;text-transform:none;block-progression:tb;white-space:normal;isolation:auto;mix-blend-mode:normal;solid-color:#000;solid-opacity:1"></path></svg>