<svg xmlns="http://www.w3.org/2000/svg" viewBox="0 0 64 64" id="social-network" fill="#FF6341"><path d="M59.41 27.41c-2.2 0-4.03 1.55-4.48 3.62h-3.69c-.23-4.59-2.06-8.75-4.95-11.95l2.62-2.62a4.582 4.582 0 0 0 5.72-.61 4.593 4.593 0 0 0 0-6.49 4.593 4.593 0 0 0-6.49 0 4.594 4.594 0 0 0-.61 5.72l-2.62 2.62c-3.2-2.89-7.36-4.72-11.95-4.95V9.07c2.06-.45 3.62-2.28 3.62-4.48A4.581 4.581 0 0 0 32 0c-2.53 0-4.59 2.06-4.59 4.59 0 2.2 1.55 4.03 3.62 4.48v3.69c-4.59.23-8.75 2.06-11.95 4.95l-2.62-2.62a4.584 4.584 0 0 0-.61-5.72 4.546 4.546 0 0 0-3.24-1.34c-1.22 0-2.38.48-3.24 1.34-.87.87-1.34 2.02-1.34 3.24 0 1.23.48 2.38 1.34 3.24.87.87 2.02 1.34 3.24 1.34.89 0 1.75-.26 2.48-.73l2.62 2.62c-2.89 3.2-4.72 7.36-4.95 11.95H9.07c-.45-2.06-2.28-3.62-4.48-3.62C2.06 27.41 0 29.47 0 32s2.06 4.59 4.59 4.59c2.2 0 4.03-1.55 4.48-3.62h3.69c.23 4.59 2.06 8.75 4.95 11.95l-2.62 2.62a4.584 4.584 0 0 0-5.72.61c-.87.87-1.34 2.02-1.34 3.24 0 1.22.48 2.38 1.34 3.24.87.87 2.02 1.34 3.24 1.34 1.23 0 2.38-.48 3.24-1.34.87-.87 1.34-2.02 1.34-3.24 0-.89-.26-1.75-.73-2.48l2.62-2.62c3.2 2.89 7.36 4.72 11.95 4.95v3.69c-2.06.45-3.62 2.28-3.62 4.48 0 2.53 2.06 4.59 4.59 4.59s4.59-2.06 4.59-4.59c0-2.2-1.55-4.03-3.62-4.48v-3.69c4.59-.23 8.75-2.06 11.95-4.95l2.62 2.62c-1.14 1.78-.94 4.17.61 5.72.89.89 2.07 1.34 3.24 1.34 1.17 0 2.35-.45 3.24-1.34a4.593 4.593 0 0 0 0-6.49 4.594 4.594 0 0 0-5.72-.61l-2.62-2.62c2.89-3.2 4.72-7.36 4.95-11.95h3.69c.45 2.06 2.28 3.62 4.48 3.62 2.53 0 4.59-2.06 4.59-4.59s-2.06-4.58-4.59-4.58zm-9.9-16.67c.52-.52 1.19-.77 1.87-.77.68 0 1.36.26 1.87.77a2.65 2.65 0 0 1 0 3.74 2.65 2.65 0 0 1-3.74 0c-1.03-1.02-1.03-2.7 0-3.74zm-35.02 3.75c-1 1-2.74 1-3.74 0-.5-.5-.78-1.16-.78-1.87 0-.71.28-1.37.78-1.87s1.16-.78 1.87-.78c.71 0 1.37.28 1.87.78s.78 1.16.78 1.87c-.01.7-.28 1.37-.78 1.87zm-9.9 20.16c-1.46 0-2.65-1.19-2.65-2.65s1.19-2.65 2.65-2.65S7.24 30.54 7.24 32a2.661 2.661 0 0 1-2.65 2.65zm9.9 18.61c-1 1-2.74 1-3.74 0-.5-.5-.78-1.16-.78-1.87 0-.71.28-1.37.78-1.87s1.16-.78 1.87-.78c.71 0 1.37.28 1.87.78s.78 1.16.78 1.87c-.01.7-.28 1.37-.78 1.87zm35.02-3.75a2.65 2.65 0 0 1 3.74 0 2.65 2.65 0 0 1 0 3.74 2.65 2.65 0 0 1-3.74 0 2.65 2.65 0 0 1 0-3.74zM29.35 4.59c0-1.46 1.19-2.65 2.65-2.65s2.65 1.19 2.65 2.65S33.46 7.24 32 7.24a2.661 2.661 0 0 1-2.65-2.65zm5.3 54.82c0 1.46-1.19 2.65-2.65 2.65s-2.65-1.19-2.65-2.65 1.19-2.65 2.65-2.65c1.46.01 2.65 1.19 2.65 2.65zM32 49.35c-9.57 0-17.35-7.78-17.35-17.35S22.43 14.65 32 14.65 49.35 22.43 49.35 32 41.57 49.35 32 49.35zm27.41-14.7c-1.46 0-2.65-1.19-2.65-2.65s1.19-2.65 2.65-2.65 2.65 1.19 2.65 2.65-1.19 2.65-2.65 2.65z"></path><path d="M36.6 30.53c.5-.82.79-1.77.79-2.8 0-2.97-2.42-5.39-5.39-5.39s-5.39 2.42-5.39 5.39c0 1.03.29 1.98.79 2.8-1 .48-1.92 1.12-2.7 1.9a9.77 9.77 0 0 0-2.89 6.98c0 1.24 1.01 2.24 2.24 2.24h15.88a2.232 2.232 0 0 0 2.24-2.24 9.8 9.8 0 0 0-5.57-8.88zM32 24.28c1.9 0 3.45 1.55 3.45 3.45 0 1.9-1.55 3.45-3.45 3.45-1.9 0-3.45-1.55-3.45-3.45 0-1.9 1.55-3.45 3.45-3.45zm8.16 15.34a.31.31 0 0 1-.22.09H24.06c-.17 0-.3-.13-.3-.3 0-2.12.83-4.11 2.32-5.61.77-.77 1.7-1.36 2.71-1.76.9.67 2.01 1.07 3.21 1.07 1.2 0 2.3-.4 3.2-1.06a7.876 7.876 0 0 1 5.04 7.36c0 .09-.03.16-.08.21z"></path></svg>