<svg xmlns="http://www.w3.org/2000/svg" data-name="Layer 1" viewBox="0 0 64 64" id="technology" fill="#FF6341"><path d="M32,7A17,17,0,1,0,49,24,17.019,17.019,0,0,0,32,7Zm1,15.98889V18.017c1.97772-.01953,3.90961-.09625,5.76813-.22876a27.52061,27.52061,0,0,1,.66363,4.91437C37.37317,22.86932,35.2135,22.96631,33,22.98889Zm6.44946,1.718A27.74934,27.74934,0,0,1,38.838,29.89c-1.88727.14014-3.84711.22235-5.83795.24317V24.98877C35.2146,24.96649,37.37946,24.87122,39.44946,24.70691ZM33,16.01709V12.73438a17.307,17.307,0,0,0,3.70367-.563A21.66977,21.66977,0,0,1,38.24023,15.82C36.54767,15.9328,34.79425,15.99908,33,16.01709ZM32,9a14.89689,14.89689,0,0,1,5.12872.92224A14.95231,14.95231,0,0,1,32,10.76465a14.95231,14.95231,0,0,1-5.12872-.84241A14.89689,14.89689,0,0,1,32,9Zm-5.09045,3.05035A16.81586,16.81586,0,0,0,31,12.73438v3.28271c-1.951-.01959-3.855-.09564-5.68329-.22717A21.56184,21.56184,0,0,1,26.90955,12.05035ZM24.11768,22.66608A27.50043,27.50043,0,0,1,24.7868,17.758c1.99317.15258,4.07825.238,6.2132.259v4.97186C28.62494,22.96466,26.30957,22.85583,24.11768,22.66608ZM31,24.98877v5.14435c-2.15234-.02252-4.27045-.11585-6.297-.27735A27.76831,27.76831,0,0,1,24.09772,24.67C26.30322,24.857,28.62347,24.96484,31,24.98877ZM24.54523,11.002c.15838.101.3305.19458.50457.28778a23.973,23.973,0,0,0-1.76123,4.33081c-1.18-.11511-2.32269-.25268-3.41388-.4151A15.09311,15.09311,0,0,1,24.54523,11.002ZM18.72241,17.0437q1.93314.31677,4.05915.53656a29.54344,29.54344,0,0,0-.65741,4.88745c-1.76276-.19934-3.41553-.45379-4.93042-.75793A14.876,14.876,0,0,1,18.72241,17.0437ZM17,24c0-.09637.01263-.18958.01447-.28552,1.56543.30633,3.26947.56054,5.07757.76019a29.989,29.989,0,0,0,.52442,5.18927c-1.68531-.179-3.27649-.408-4.74732-.68018A14.9003,14.9003,0,0,1,17,24Zm7.54523,12.998a15.09794,15.09794,0,0,1-5.70887-5.81562c1.34455.21485,2.77533.39331,4.26294.538a24.31651,24.31651,0,0,0,1.9505,4.98975C24.87573,36.80341,24.70361,36.89709,24.54523,36.99805ZM31,32.13306v3.13256a16.81586,16.81586,0,0,0-4.09045.684,21.76819,21.76819,0,0,1-1.68128-4.04938C27.09943,32.03455,29.03613,32.11292,31,32.13306ZM32,39a14.89663,14.89663,0,0,1-5.12866-.9223A14.952,14.952,0,0,1,32,37.23535a14.952,14.952,0,0,1,5.12866.84235A14.89663,14.89663,0,0,1,32,39Zm4.70367-3.17139A17.307,17.307,0,0,0,33,35.26562V32.13306c1.80182-.0185,3.58325-.08356,5.31024-.19831A21.834,21.834,0,0,1,36.70367,35.82861Zm2.7511,1.16944a7.98333,7.98333,0,0,0-.85559-.47559A24.42831,24.42831,0,0,0,40.436,31.76593c1.65589-.15143,3.243-.34625,4.72767-.5835A15.09794,15.09794,0,0,1,39.45477,36.99805ZM47,24a14.9003,14.9003,0,0,1-.86914,4.98376c-1.60346.2967-3.35486.53949-5.2088.72522a29.95926,29.95926,0,0,0,.53277-5.18566c1.97632-.2063,3.83509-.47706,5.5307-.80884C46.98737,23.81042,47,23.90363,47,24Zm-.19373-2.29022c-1.64263.32983-3.45056.59979-5.38061.806a29.55968,29.55968,0,0,0-.64978-4.8938c1.57556-.15118,3.08008-.34534,4.50171-.57831A14.876,14.876,0,0,1,46.80627,21.70978Zm-6.53521-6.05a24.12833,24.12833,0,0,0-1.67188-4.18225,7.98314,7.98314,0,0,0,.85559-.47553,15.09311,15.09311,0,0,1,4.67054,4.20349C42.9,15.38782,41.60687,15.53711,40.27106,15.65973Z"></path><path d="M59,12V9.858a4,4,0,1,0-2,0V11H49.7337A21.95912,21.95912,0,0,0,17,7.92737V6a.99974.99974,0,0,0-1-1H9.858a4,4,0,1,0,0,2H15v3h.04211A21.899,21.899,0,0,0,10,24a30.717,30.717,0,0,0,5.00232,16H7V37.858a4,4,0,1,0-2,0V41a.99974.99974,0,0,0,1,1H16.39807c.38257.50592.77429,1.00305,1.18494,1.47949A14.62123,14.62123,0,0,1,19.32013,46H14a.99974.99974,0,0,0-1,1v7H10.858a4,4,0,1,0,0,2H14a.99974.99974,0,0,0,1-1V48h5.22437A12.86816,12.86816,0,0,1,21,52.333v.44726a2.97466,2.97466,0,0,0,1.1734,5.08942,2.77533,2.77533,0,0,0-.1734.9389v.38282A2.812,2.812,0,0,0,24.80908,62H39.19092A2.812,2.812,0,0,0,42,59.19141v-.38282a2.77533,2.77533,0,0,0-.1734-.9389A2.97466,2.97466,0,0,0,43,52.78027V52.333a13.64431,13.64431,0,0,1,3.417-8.85352c.13471-.15625.2627-.31988.39441-.47949H50V53a.99974.99974,0,0,0,1,1h3.142a4,4,0,1,0,0-2H52V42a.99974.99974,0,0,0-1-1H48.32812a32.57112,32.57112,0,0,0,5.15552-12H57v2.142a4,4,0,1,0,2,0V28a.99974.99974,0,0,0-1-1H53.802A24.42461,24.42461,0,0,0,54,24a21.85686,21.85686,0,0,0-2.95972-11H58A.99974.99974,0,0,0,59,12ZM6,8A2,2,0,1,1,8,6,2.00229,2.00229,0,0,1,6,8ZM4,34a2,2,0,1,1,2,2A2.00229,2.00229,0,0,1,4,34ZM7,57a2,2,0,1,1,2-2A2.00229,2.00229,0,0,1,7,57Zm51-6a2,2,0,1,1-2,2A2.00229,2.00229,0,0,1,58,51Zm2-16a2,2,0,1,1-2-2A2.00229,2.00229,0,0,1,60,35ZM40,59.19141A.80937.80937,0,0,1,39.19092,60H24.80908A.80937.80937,0,0,1,24,59.19141v-.38282A.80937.80937,0,0,1,24.80908,58H39.19092A.80937.80937,0,0,1,40,58.80859ZM41,56H23a1,1,0,0,1,0-2H41a1,1,0,0,1,0,2ZM52,24a29.26761,29.26761,0,0,1-7.09766,18.17285A15.69379,15.69379,0,0,0,41.00391,52H22.99609a15.69379,15.69379,0,0,0-3.89843-9.82715A29.26761,29.26761,0,0,1,12,24a20,20,0,0,1,40,0ZM56,6a2,2,0,1,1,2,2A2.00229,2.00229,0,0,1,56,6Z"></path><rect width="2" height="2" x="33" y="46"></rect><rect width="2" height="2" x="31" y="44"></rect><rect width="2" height="2" x="29" y="46"></rect><rect width="2" height="2" x="35" y="48"></rect><rect width="2" height="2" x="27" y="48"></rect></svg>